# xmcd CD database file
#
# Track frame offsets:
#	150
#	6247
#	31908
#	44574
#	53870
#	63330
#	80249
#	86497
#	101839
#	108076
#	123106
#	132824
#	142654
#	148461
#	153999
#	163136
#
# Disc length: 2908 seconds
#
# Revision: 2
# Processed by: cddbd v1.5.2PL0 Copyright (c) Steve Scherf et al.
# Submitted via: CDex 1.51
#
DISCID=d80b5a10
DTITLE=Schumann - Chants sur des poèmes de Justinus Kerner and de Heinrich Heine
DYEAR=1900
DGENRE=Classique
TTITLE0=12 Chants sur des poèmes de Justinus Kerner - Lust der Stutmnacht
TTITLE1=12 Chants sur des poèmes de Justinus Kerner - Stirb' Lieb' und Freuf'!
TTITLE2=12 Chants sur des poèmes de Justinus Kerner - Wanderlied
TTITLE3=12 Chants sur des poèmes de Justinus Kerner - Erstes Grün
TTITLE4=12 Chants sur des poèmes de Justinus Kerner - Sehnsucht nach der Waldgegend
TTITLE5=12 Chants sur des poèmes de Justinus Kerner - Auf das Trinkglas eines verstorbenen Freundes
TTITLE6=12 Chants sur des poèmes de Justinus Kerner - Wanderung
TTITLE7=12 Chants sur des poèmes de Justinus Kerner - Stille Liebe
TTITLE8=12 Chants sur des poèmes de Justinus Kerner - Frage
TTITLE9=12 Chants sur des poèmes de Justinus Kerner - Stille Tränen
TTITLE10=12 Chants sur des poèmes de Justinus Kerner - Wer machte dich so krank
TTITLE11=12 Chants sur des poèmes de Justinus Kerner - Alte Laute
TTITLE12=7 Chants sur des poèmes de Heinrich Heine - Der arme Peter - I. Der Hans und die Grete tanzen herum
TTITLE13=7 Chants sur des poèmes de Heinrich Heine - Der arme Peter - II. In meiner Brust, da sitzt ein Weh
TTITLE14=7 Chants sur des poèmes de Heinrich Heine - Der arme Peter - III. Der arme Peter wanki vorbei
TTITLE15=7 Chants sur des poèmes de Heinrich Heine - Chants 4, 5, 6, 7
EXTD=
EXTT0=
EXTT1=
EXTT2=
EXTT3=
EXTT4=
EXTT5=
EXTT6=
EXTT7=
EXTT8=
EXTT9=
EXTT10=
EXTT11=
EXTT12=
EXTT13=
EXTT14=
EXTT15=
PLAYORDER=
